<svg width="256" height="248" viewBox="0 0 256 248" fill="none" xmlns="http://www.w3.org/2000/svg">
<path d="M138.178 23.9414V224.51C138.178 237.724 149.1 248.452 162.554 248.452C176.008 248.452 186.93 237.724 186.93 224.51V23.9414C186.93 10.7271 176.008 0 162.554 0C149.1 0 138.178 10.7271 138.178 23.9414ZM69.0695 78.2985V224.472C69.0695 237.706 79.9915 248.414 93.4459 248.414C106.9 248.414 117.822 237.687 117.822 224.472V78.2416C117.822 65.0083 106.9 54.3001 93.4459 54.3001C79.9915 54.3001 69.0695 65.0273 69.0695 78.2416V78.2985ZM0 105.43V224.51C0 237.724 10.922 248.452 24.3764 248.452C37.8307 248.452 48.7527 237.724 48.7527 224.51V105.487C48.7527 92.2723 37.8307 81.5451 24.3764 81.5451C10.922 81.5451 0 92.2723 0 105.487V105.43ZM207.247 144.313V224.529C207.247 237.762 218.169 248.471 231.624 248.471C245.078 248.471 256 237.743 256 224.529V144.256C256 131.023 245.078 120.315 231.624 120.315C218.169 120.315 207.247 131.042 207.247 144.256" fill="#C9AFFF"/>
</svg>
